<!-- Updated icon for Dilshan Travelscape -->
<svg width="512" height="512" viewBox="0 0 512 512" xmlns="http://www.w3.org/2000/svg">
  <defs>
    <linearGradient id="bg" x1="0%" y1="0%" x2="100%" y2="100%">
      <stop offset="0%" style="stop-color:#232249;stop-opacity:1" />
      <stop offset="100%" style="stop-color:#1e40af;stop-opacity:1" />
    </linearGradient>
    <linearGradient id="accent" x1="0%" y1="0%" x2="100%" y2="100%">
      <stop offset="0%" style="stop-color:#fbbf24;stop-opacity:1" />
      <stop offset="100%" style="stop-color:#f59e0b;stop-opacity:1" />
    </linearGradient>
  </defs>
  
  <!-- Background -->
  <rect width="512" height="512" rx="64" fill="url(#bg)"/>
  
  <!-- Vehicle/Travel element -->
  <rect x="64" y="192" width="384" height="128" rx="32" fill="#5b1d1b" opacity="0.8"/>
  
  <!-- Wheels -->
  <circle cx="144" cy="320" r="48" fill="#ffffff"/>
  <circle cx="368" cy="320" r="48" fill="#ffffff"/>
  <circle cx="144" cy="320" r="24" fill="#232249"/>
  <circle cx="368" cy="320" r="24" fill="#232249"/>
  
  <!-- Main window/feature -->
  <rect x="192" y="224" width="128" height="64" rx="12" fill="url(#accent)"/>
  
  <!-- Company initials -->
  <text x="256" y="268" text-anchor="middle" fill="#232249" font-family="Arial, sans-serif" font-size="36" font-weight="bold">DT</text>
  
  <!-- Decorative elements for travel theme -->
  <path d="M 256 96 L 272 128 L 240 128 Z" fill="url(#accent)" opacity="0.7"/>
  <circle cx="256" cy="400" r="12" fill="#fbbf24" opacity="0.5"/>
  <circle cx="220" cy="420" r="6" fill="#fbbf24" opacity="0.5"/>
  <circle cx="292" cy="420" r="6" fill="#fbbf24" opacity="0.5"/>
  
  <!-- Additional travel elements -->
  <path d="M 128 96 Q 256 64 384 96" stroke="#fbbf24" stroke-width="4" fill="none" opacity="0.6"/>
  <circle cx="128" cy="96" r="8" fill="#fbbf24" opacity="0.8"/>
  <circle cx="256" cy="80" r="6" fill="#fbbf24" opacity="0.8"/>
  <circle cx="384" cy="96" r="8" fill="#fbbf24" opacity="0.8"/>
</svg>